<svg xmlns="http://www.w3.org/2000/svg" width="22" height="22" viewBox="0 0 22 22" fill="none">
<path d="M3.66669 7.33333V5.5C3.66669 4.48748 4.4875 3.66666 5.50002 3.66666H7.33335" stroke="#666666" stroke-width="1.5" stroke-linecap="round" stroke-linejoin="round"/>
<path d="M3.66669 14.6667V16.5C3.66669 17.5125 4.4875 18.3333 5.50002 18.3333H7.33335" stroke="#666666" stroke-width="1.5" stroke-linecap="round" stroke-linejoin="round"/>
<path d="M14.6667 3.66666H16.5C17.5125 3.66666 18.3333 4.48748 18.3333 5.5V7.33333" stroke="#666666" stroke-width="1.5" stroke-linecap="round" stroke-linejoin="round"/>
<path d="M14.6667 18.3333H16.5C17.5125 18.3333 18.3333 17.5125 18.3333 16.5V14.6667" stroke="#666666" stroke-width="1.5" stroke-linecap="round" stroke-linejoin="round"/>
<rect x="7.33331" y="10.0833" width="7.33333" height="4.58333" rx="1" stroke="#666666" stroke-width="1.5" stroke-linecap="round" stroke-linejoin="round"/>
<path d="M9.16669 10.0833V8.25C9.16669 7.23748 9.9875 6.41666 11 6.41666C12.0125 6.41666 12.8334 7.23748 12.8334 8.25V10.0833" stroke="#666666" stroke-width="1.5" stroke-linecap="round" stroke-linejoin="round"/>
</svg>